<svg width="40" height="37" viewBox="0 0 40 37" fill="none" xmlns="http://www.w3.org/2000/svg">
<path d="M7.625 17.7292C7.6197 19.764 8.0951 21.7712 9.0125 23.5875C10.1003 25.7639 11.7725 27.5946 13.8419 28.8743C15.9112 30.1541 18.296 30.8324 20.7292 30.8333C22.764 30.8386 24.7712 30.3632 26.5875 29.4458L35.375 32.375L32.4458 23.5875C33.3632 21.7712 33.8386 19.764 33.8333 17.7292C33.8324 15.296 33.1541 12.9112 31.8743 10.8418C30.5946 8.77247 28.7639 7.10025 26.5875 6.0125C24.7712 5.0951 22.764 4.61969 20.7292 4.625H19.9583C16.745 4.80228 13.7099 6.15859 11.4342 8.43424C9.15859 10.7099 7.80228 13.745 7.625 16.9583V17.7292Z" fill="#7C85D7" stroke="black" stroke-width="2" stroke-linecap="round" stroke-linejoin="round"/>
<path d="M27.5 18L17.0833 30L9.5 33L11.4167 13L19.1667 10L18.125 18H27.5Z" fill="#7482FC" stroke="black" stroke-width="2" stroke-linecap="round" stroke-linejoin="round"/>
<path d="M11.4167 13L1 25H10.375L9.33333 33L19.75 21H10.375L11.4167 13Z" fill="#A2C3F5" stroke="black" stroke-width="2" stroke-linecap="round" stroke-linejoin="round"/>
</svg>
